<svg t="1752307656595" class="icon" viewBox="0 0 1024 1024" version="1.1" xmlns="http://www.w3.org/2000/svg" p-id="660"><path d="M917.333333 234.666667H106.666667v64H0v42.666666h106.666667v85.333334H0v42.666666h106.666667v85.333334H0v42.666666h106.666667v85.333334H0v42.666666h106.666667v64h810.666666v-64h106.666667v-42.666666h-106.666667v-85.333334h106.666667v-42.666666h-106.666667v-85.333334h106.666667v-42.666666h-106.666667v-85.333334h106.666667v-42.666666h-106.666667v-64zM149.333333 277.333333h426.666667v173.845334l-128 121.493333V746.666667h-64v-192h-106.666667v-56.106667a66.688 66.688 0 1 0-42.666666-4.266667V746.666667H149.333333V277.333333z m88.896 156.437334a24 24 0 1 1 24 24 24 24 0 0 1-24-24zM277.333333 597.333333h64v149.333334h-64v-149.333334z m304 28.437334a22.208 22.208 0 1 1 22.229334 22.229333 22.208 22.208 0 0 1-22.229334-22.229333zM874.666667 746.666667h-128V512h-42.666667v234.666667h-85.333333v-57.962667a64.938667 64.938667 0 1 0-42.666667-4.394667V746.666667h-85.333333v-155.733334l128-121.6v-192h256v469.333334z m-85.333334-341.333334h42.666667v192h-42.666667v-192z" fill="#ED701A" p-id="661"></path></svg>